<?xml version="1.0" encoding="UTF-8"?>
<!-- Generated by Pixelmator Pro 3.7 -->
<svg width="1024" height="1024" viewBox="0 0 1024 1024" xmlns="http://www.w3.org/2000/svg">
    <linearGradient id="linearGradient1" x1="520.32" y1="967.335" x2="503.19" y2="56.2875" gradientUnits="userSpaceOnUse">
        <stop offset="1e-05" stop-color="#0d6ba7" stop-opacity="1"/>
        <stop offset="1" stop-color="#2b9ed8" stop-opacity="1"/>
    </linearGradient>
    <path id="path1" fill="url(#linearGradient1)" stroke="none" visibility="hidden" d="M 213.355499 61.274475 C 224.462494 60.511475 241.434494 61.01001 252.798492 61.013977 L 324.691986 61.024475 L 549.705017 60.967529 L 726.294983 60.986023 L 777.359985 60.98999 C 794.88501 61 811.265015 60.625977 828.594971 63.603027 C 900.659973 75.983032 956.905029 137.188965 962.219971 210.257019 C 963.390015 226.323975 962.905029 242.825012 962.890015 258.947021 L 962.934998 333.234497 L 962.97998 570.484985 L 963.01001 733.75 L 963.059998 778.775024 C 963.090027 794.89502 963.48999 809.530029 960.974976 825.539978 C 956.554993 855.530029 943.61499 883.61499 923.695007 906.460022 C 893.164978 941.76001 854.744995 959.445007 808.505005 962.849976 C 793.215027 963.52002 777.099976 963.094971 761.705017 963.080017 L 680.275024 963.015015 L 433.137512 963.005005 L 286.571014 963 L 243.668503 962.965027 C 235.789505 962.945007 227.670502 963.054993 219.929504 962.804993 C 137.7155 960.174988 68.073997 896.48999 61.785 813.775024 C 60.959 802.914978 61.487499 792.02002 61.315498 781.065002 C 60.924999 752.965027 60.743999 724.86499 60.771999 696.76001 L 60.813999 445.710999 L 60.810001 289.815002 L 60.898998 243.195984 C 60.946999 227.113525 60.540501 213.473999 63.105 197.44751 C 67.693497 168.403992 80.265999 141.20752 99.418503 118.896484 C 129.113007 84.005981 167.830505 64.929993 213.355499 61.274475 Z"/>
    <text id="text1" xml:space="preserve" x="310" y="1198" font-family="Times" font-size="37" fill="#444444">텍스트</text>
    <path id="path2" fill="#fefdfe" stroke="none" d="M 674.184998 253.269531 C 669.565002 258.639526 645.630005 281.252991 645.36499 287.755981 C 646.38501 289.467041 645.690002 288.907959 647.424988 289.608521 C 649.390015 288.721497 653.715027 282.162964 655.380005 279.963013 C 658.809998 275.471008 662.469971 271.162964 666.35498 267.058472 C 680.099976 252.299988 700.710022 237.083984 721.659973 236.38147 C 745.530029 235.581482 760.690002 255.109009 760.815002 277.828979 C 760.950012 301.653503 749.515015 321.782959 733.299988 338.567017 C 733.130005 333.506958 732.98999 329.230957 732.414978 324.177002 C 738.405029 317.528992 743.494995 309.088013 746.539978 300.748535 C 759.719971 264.676025 740.794983 233.803467 700.85498 252.606018 L 701.534973 253.55603 C 702.659973 253.650024 703.01001 253.426514 703.60498 254.061035 C 705.119995 255.684021 704.48999 261.94397 704.169983 264.171021 C 730.195007 284.109497 727.419983 299.725464 728.440002 329.731506 L 730.255005 374.843018 L 732.77002 432.057983 C 735.52002 490.120972 738.585022 483.026489 703.075012 529.034973 L 567.164978 705.97998 L 524.094971 761.835022 C 518.924988 768.554993 509.654999 781.63501 504.595001 787.36499 L 502.929993 789.659973 C 499.196991 794.080017 494.5065 799.919983 491.269501 804.75 C 487.5755 801.945007 480.653503 796.440002 476.752991 794.534973 C 476.044006 793.344971 475.016998 792.684998 473.9245 791.809998 C 472.713013 790.765015 471.070007 789.679993 469.729004 788.73999 L 468.962494 788.664978 C 466.009491 789.455017 464.304993 789.080017 461.338501 789.585022 C 457.792511 790.190002 455.903503 791.419983 452.339508 791.794983 C 460.176514 797.075012 475.31601 809.369995 482.590515 815.664978 C 477.862488 821.640015 471.014496 825.565002 463.468506 826.625 C 458.755493 827.265015 451.59549 826.755005 447.497986 824.515015 C 436.372498 818.424988 424.662994 808.335022 414.373993 800.530029 L 351.122986 752.580017 C 350.134491 753.794983 350.618988 753.474976 349.242004 754.065002 C 344.949493 752.815002 335.049988 745.099976 330.696503 742.159973 C 328.545013 740.994995 329.109497 741.64502 327.870514 739.705017 C 328.854492 738.75 328.773987 738.789978 330.045013 738.289978 C 331.368988 738.88501 331.890503 739.070007 333.321503 739.275024 C 328.154999 734.815002 321.990997 730.294983 316.511993 726.11499 C 315.467987 727.059998 315.153503 727.585022 313.796509 727.780029 C 310.640991 725.64502 301.971008 717.835022 300.006012 714.650024 C 294.07251 708.919983 278.745514 697.320007 271.505005 692.515015 C 270.255005 691.255005 269.362488 690.619995 267.934998 689.544983 C 261.958008 684.905029 255.953995 680.299988 249.923004 675.72998 C 243.699493 671.059998 237.459 666.86499 232.197495 661.109985 L 229.578995 657.530029 C 228.761505 655.780029 228.057999 653.974976 227.473495 652.130005 C 224.098007 641.684998 226.927002 635.215027 231.509995 626.184998 L 232.542496 625.724976 C 236.194 627.440002 240.8125 631.515015 244.457504 633.844971 C 244.106003 630.244995 235.689499 617.849976 237.238007 613.400024 L 238.054001 613.294983 L 240.044006 615.090027 L 240.375 614.650024 C 246.160507 608.195007 254.404999 597.119995 259.926514 590.10498 L 291.713013 549.705017 L 315.087494 519.650024 C 319.324005 514.210022 324.448486 507.969971 328.250488 502.405029 L 330.505005 499.471008 C 338.557495 487.846008 351.869507 472.292969 360.865509 460.561523 L 442.373993 354.590515 L 444.07901 352.372986 C 450.538513 343.667969 457.123993 335.056519 463.832001 326.541016 C 468.324005 320.726013 475.810486 310.199463 481.317993 305.784485 C 493.254486 296.215515 511.950012 293.202026 526.804993 289.213501 C 551.695007 282.683472 576.63501 276.352539 601.625 270.221497 L 606.200012 269.046021 C 625.465027 265.522461 655.405029 254.689514 674.184998 253.269531 Z"/>
    <path id="path3" fill="#fefdfe" stroke="none" d="M 231.509995 626.184998 L 232.542496 625.724976 C 236.194 627.440002 240.8125 631.515015 244.457504 633.844971 L 246.057007 635.155029 L 292.160004 670.179993 C 300.344513 676.424988 311 685.075012 319.261505 690.72998 C 321.834015 690.554993 324.610504 690.085022 326.89151 691.275024 L 328.201508 690.484985 L 328.37149 697.440002 C 329.084503 697.98999 329.824493 698.594971 330.563995 699.099976 C 355.186493 718.275024 380.006989 737.200012 405.019989 755.86499 C 417.358002 765.184998 434.292511 779.119995 446.817505 787.455017 C 448.809998 789.284973 449.941498 790.455017 452.339508 791.794983 C 460.176514 797.075012 475.31601 809.369995 482.590515 815.664978 C 477.862488 821.640015 471.014496 825.565002 463.468506 826.625 C 458.755493 827.265015 451.59549 826.755005 447.497986 824.515015 C 436.372498 818.424988 424.662994 808.335022 414.373993 800.530029 L 351.122986 752.580017 C 350.134491 753.794983 350.618988 753.474976 349.242004 754.065002 C 344.949493 752.815002 335.049988 745.099976 330.696503 742.159973 C 328.545013 740.994995 329.109497 741.64502 327.870514 739.705017 C 328.854492 738.75 328.773987 738.789978 330.045013 738.289978 C 331.368988 738.88501 331.890503 739.070007 333.321503 739.275024 C 328.154999 734.815002 321.990997 730.294983 316.511993 726.11499 C 315.467987 727.059998 315.153503 727.585022 313.796509 727.780029 C 310.640991 725.64502 301.971008 717.835022 300.006012 714.650024 C 294.07251 708.919983 278.745514 697.320007 271.505005 692.515015 C 270.255005 691.255005 269.362488 690.619995 267.934998 689.544983 C 261.958008 684.905029 255.953995 680.299988 249.923004 675.72998 C 243.699493 671.059998 237.459 666.86499 232.197495 661.109985 L 229.578995 657.530029 C 228.761505 655.780029 228.057999 653.974976 227.473495 652.130005 C 224.098007 641.684998 226.927002 635.215027 231.509995 626.184998 Z"/>
    <path id="path4" fill="#73c2ec" stroke="none" d="M 327.870514 739.705017 C 328.854492 738.75 328.773987 738.789978 330.045013 738.289978 C 331.368988 738.88501 331.890503 739.070007 333.321503 739.275024 C 335.856995 740.994995 349.148987 750.61499 351.122986 752.580017 C 350.134491 753.794983 350.618988 753.474976 349.242004 754.065002 C 344.949493 752.815002 335.049988 745.099976 330.696503 742.159973 C 328.545013 740.994995 329.109497 741.64502 327.870514 739.705017 Z"/>
    <path id="path5" fill="#73c2ec" stroke="none" d="M 300.006012 714.650024 C 303.28949 715.994995 313.62149 723.594971 316.511993 726.11499 C 315.467987 727.059998 315.153503 727.585022 313.796509 727.780029 C 310.640991 725.64502 301.971008 717.835022 300.006012 714.650024 Z"/>
    <path id="path6" fill="#1b7fba" stroke="none" d="M 326.89151 691.275024 L 328.201508 690.484985 L 328.37149 697.440002 C 326.475006 696.22998 323.247498 694.054993 321.725494 692.51001 C 325.158997 692.5 324.523987 692.955017 326.89151 691.275024 Z"/>
    <path id="path7" fill="#1b7fba" stroke="none" d="M 623.85498 330.811523 C 627.465027 317.869019 632.14502 306.724976 639.465027 295.418457 C 640.820007 293.321533 641.534973 291.407471 643.109985 289.443481 C 644.690002 289.166504 644.460022 289.466003 646.284973 290.541504 C 647.005005 292.719971 642.429993 299.079468 641.065002 301.355957 C 629.469971 320.548462 618.804993 350.800537 636.700012 369.674011 C 640.349976 373.524536 646.380005 377.525024 650.844971 372.635498 C 653.015015 364.875488 638.265015 363.942993 637.405029 348.467041 C 636.424988 330.852539 644.38501 313.576538 654.344971 299.290039 C 654.445007 299.182495 654.544983 299.075012 654.64502 298.967041 L 655.684998 298.875977 C 656.174988 300.087524 656.830017 300.844971 656.090027 302.065491 C 649.919983 312.20752 645.679993 321.084473 642.219971 332.497498 C 652.544983 337.811035 656.669983 341.225464 662.265015 351.619507 L 663.700012 354.950989 C 667.690002 367.963989 666.775024 381.065002 658.530029 392.280029 C 652.580017 400.406494 643.659973 405.848511 633.715027 407.416016 C 623.219971 409.018494 612.530029 406.292969 604.085022 399.864014 C 595.924988 393.526001 590.630005 384.192017 589.380005 373.93396 C 588.070007 363.938477 590.77002 353.830994 596.88501 345.819458 C 603.809998 336.854492 612.804993 332.311523 623.85498 330.811523 Z"/>
    <path id="path8" fill="#73c2ec" stroke="none" d="M 662.265015 351.619507 L 663.700012 354.950989 C 658.945007 355.026001 650.835022 355.653015 646.599976 353.651489 L 646.619995 352.866455 C 650.724976 351.156006 657.655029 351.575012 662.265015 351.619507 Z"/>
    <path id="path9" fill="#73c2ec" stroke="none" d="M 597.914978 351.998535 C 605.835022 352.111511 617.219971 351.508545 624.679993 352.150024 C 625.719971 353.063477 625.369995 353.10199 625.515015 354.993042 C 617.234985 354.879028 606.765015 355.351501 598.755005 354.851501 C 597.784973 353.951538 598.094971 353.742004 597.914978 351.998535 Z"/>
    <path id="path10" fill="#1b7fba" stroke="none" d="M 244.457504 633.844971 C 244.106003 630.244995 235.689499 617.849976 237.238007 613.400024 L 238.054001 613.294983 L 240.044006 615.090027 L 240.375 614.650024 C 243.520493 615.900024 324.12851 676.710022 329.632507 682.085022 C 333.889008 684.669983 342.110992 691.190002 346.445496 694.455017 L 386.01651 724.76001 C 405.142487 739.14502 424.178009 753.655029 443.12149 768.280029 C 449.908997 773.474976 464.140015 783.414978 469.729004 788.73999 L 468.962494 788.664978 C 466.009491 789.455017 464.304993 789.080017 461.338501 789.585022 C 457.792511 790.190002 455.903503 791.419983 452.339508 791.794983 C 449.941498 790.455017 448.809998 789.284973 446.817505 787.455017 C 434.292511 779.119995 417.358002 765.184998 405.019989 755.86499 C 380.006989 737.200012 355.186493 718.275024 330.563995 699.099976 C 329.824493 698.594971 329.084503 697.98999 328.37149 697.440002 L 328.201508 690.484985 L 326.89151 691.275024 C 324.610504 690.085022 321.834015 690.554993 319.261505 690.72998 C 311 685.075012 300.344513 676.424988 292.160004 670.179993 L 246.057007 635.155029 L 244.457504 633.844971 Z"/>
    <path id="path11" fill="#73c2ec" stroke="none" d="M 244.457504 633.844971 C 244.106003 630.244995 235.689499 617.849976 237.238007 613.400024 L 238.054001 613.294983 L 240.044006 615.090027 C 241.307007 618.549988 247.820999 632.280029 247.442001 634.174988 L 246.057007 635.155029 L 244.457504 633.844971 Z"/>
    <path id="path12" fill="#73c2ec" stroke="none" d="M 446.817505 787.455017 C 452.020508 787.320007 464.409485 786.554993 468.962494 788.664978 C 466.009491 789.455017 464.304993 789.080017 461.338501 789.585022 C 457.792511 790.190002 455.903503 791.419983 452.339508 791.794983 C 449.941498 790.455017 448.809998 789.284973 446.817505 787.455017 Z"/>
    <path id="path13" fill="#73c2ec" stroke="none" d="M 328.201508 690.484985 C 328.037994 687.909973 327.42099 683.900024 328.901489 682.099976 C 331.50351 685.275024 330.618988 694.414978 330.563995 699.099976 C 329.824493 698.594971 329.084503 697.98999 328.37149 697.440002 L 328.201508 690.484985 Z"/>
    <linearGradient id="linearGradient2" x1="675.735" y1="272.9985" x2="683.145" y2="279.6985" gradientUnits="userSpaceOnUse">
        <stop offset="1e-05" stop-color="#3f8ca4" stop-opacity="1"/>
        <stop offset="1" stop-color="#2b82b2" stop-opacity="1"/>
    </linearGradient>
    <path id="path14" fill="url(#linearGradient2)" stroke="none" d="M 700.85498 252.606018 L 701.534973 253.55603 C 702.659973 253.650024 703.01001 253.426514 703.60498 254.061035 C 705.119995 255.684021 704.48999 261.94397 704.169983 264.171021 C 703.465027 263.844482 702.244995 263.073486 701.530029 262.654541 L 695.130005 259.765503 C 683.630005 268.718994 675.284973 276.748535 666.02002 288.103516 C 664.414978 290.072021 658.48999 298.987 657.109985 299.325012 C 656.390015 299.006958 656.219971 298.762512 655.684998 298.875977 L 654.64502 298.967041 C 663.304993 282.046997 684.994995 262.447998 700.85498 252.606018 Z"/>
    <path id="path15" fill="#87d3f9" stroke="none" d="M 701.534973 253.55603 C 702.659973 253.650024 703.01001 253.426514 703.60498 254.061035 C 705.119995 255.684021 704.48999 261.94397 704.169983 264.171021 C 703.465027 263.844482 702.244995 263.073486 701.530029 262.654541 C 701.474976 259.670044 701.530029 256.55249 701.534973 253.55603 Z"/>
    <path id="path16" fill="#1b7fba" stroke="none" d="M 546.205017 458.252502 C 551.594971 462.178467 556.940002 466.170044 562.234985 470.225464 C 558.174988 475.213989 553.869995 481.138489 549.929993 486.302979 C 563.405029 497.546997 573.070007 509.234985 581.065002 524.789978 C 571.710022 531.619995 563.304993 539.559998 553.39502 546.585022 C 546.890015 532.155029 541.109985 523.655029 530.039978 512.76001 C 519.099976 526.150024 509.355011 539.85498 498.722992 553.190002 C 515.955017 576.734985 531.125 601.799988 515.744995 630.63501 C 508.035004 645.094971 496.921509 656.125 480.945007 660.974976 C 461.08551 667.005005 441.519012 661.625 423.786011 652.13501 C 418.527496 658.559998 413.418488 665.809998 408.4935 672.554993 L 400.335999 666.744995 L 392.627502 661.030029 C 397.566986 655.075012 403.412994 646.705017 408.179993 640.349976 C 391.335999 627.27002 380.609497 611.710022 373.117004 591.974976 L 399.054993 569.200012 C 407.515991 589.025024 412.989502 598.619995 428.507996 613.780029 C 437.903015 599.924988 451.621002 583.10498 462.048492 569.554993 C 453.568512 559.559998 443.529999 540.780029 440.992004 527.77002 C 437.963013 512.945007 441.57901 499.384033 449.740509 486.886963 C 468.912506 457.530029 505.709991 456.7005 533.349976 475.139038 C 537.72998 469.583008 542.015015 463.953003 546.205017 458.252502 Z"/>
    <path id="path17" fill="#fefdfe" stroke="none" d="M 473.160004 586.349976 C 477.526001 592.35498 481.496002 601.429993 480.851013 609.01001 C 480.296997 615.080017 477.266998 620.659973 472.472992 624.429993 C 466.366486 629.159973 460.942505 629.14502 453.836487 628.335022 C 450.287506 627.47998 447.475006 626.280029 444.24649 624.659973 C 453.80249 611.825012 463.440491 599.054993 473.160004 586.349976 Z"/>
    <path id="path18" fill="#fefdfe" stroke="none" d="M 497.537506 497.603027 C 505.11499 497.257507 507.519989 498.086487 514.35498 501.204956 L 491.417999 531.11499 C 490.391998 532.674988 488.01001 535.61499 486.795502 537.200012 C 481.143005 526.179993 476.686493 513.710022 486.705994 503.040039 C 489.686493 499.862488 493.3815 498.514038 497.537506 497.603027 Z"/>
    <path id="path19" fill="#fefdfe" stroke="none" d="M 288.452515 318.044006 C 289.935486 325.924011 290.992004 334.335999 292.48349 342.458496 C 292.77951 343.543457 293.196014 344.903992 293.425995 345.975464 C 293.657501 348.127502 293.87149 349.949463 294.249512 352.078979 L 294.657501 354.990479 C 296.860504 363.985962 298.640991 377.011963 307.51001 381.049011 C 321.968506 387.630493 346.557007 390.897461 362.276489 393.544495 C 351.527496 394.751465 341.5625 396.449463 330.903503 398.326538 L 327.164001 399.203979 C 318.778992 401.046509 305.553986 402.916504 301.337006 410.731506 C 293.105988 425.985474 292.144012 451.723022 288.408997 468.368042 C 286.923004 454.890991 282.051514 415.281494 271.794006 406.929993 C 267.154999 403.153015 261.363007 402.578003 255.936996 400.643494 L 253.164993 400.158997 C 242.843994 397.853516 224.240997 394.509033 213.772995 393.5625 C 219.138504 392.37146 223.649506 391.699463 229.072998 390.89801 L 232.415497 390.362 C 238.611496 389.187012 258.321503 385.831543 263.203003 382.972534 C 265.397003 382.471985 265.605499 382.316528 267.616486 381.217041 C 277.019989 376.916504 278.272491 370.333008 280.736511 361.276978 C 278.722504 361.833984 279.011993 362.084473 277.296997 361.608032 L 277.144989 360.685486 C 278.303497 358.305542 280.157501 356.559998 281.962006 354.583496 C 284.849487 345.508545 287.380005 327.544495 288.452515 318.044006 Z"/>
    <path id="path20" fill="#87d3f9" stroke="none" d="M 281.962006 354.583496 C 281.722504 357.1875 281.325989 358.770508 280.736511 361.276978 C 278.722504 361.833984 279.011993 362.084473 277.296997 361.608032 L 277.144989 360.685486 C 278.303497 358.305542 280.157501 356.559998 281.962006 354.583496 Z"/>
    <path id="path21" fill="#fefdfe" stroke="none" d="M 733.825012 630.210022 C 734.315002 626.375 735.880005 620.080017 736.609985 615.940002 C 738.35498 606.10498 739.804993 596.330017 741.465027 586.505005 C 741.869995 589.27002 742.409973 592 742.919983 594.744995 C 743.219971 596.945007 743.585022 598.539978 744.094971 600.705017 C 744.875 608.38501 750.130005 642.340027 757.789978 645.765015 C 772.530029 652.36499 795.674988 656.924988 811.974976 658.48999 C 804.539978 660.359985 795.184998 661.405029 787.494995 662.825012 C 780.695007 664.080017 775.289978 665.349976 768.570007 667.099976 L 765.554993 668.11499 C 753.61499 672.210022 751.849976 678.39502 748.929993 689.625 L 748.179993 692.515015 C 745.640015 705.36499 743.405029 718.27002 741.474976 731.224976 C 739.565002 717.859985 735.849976 682.275024 725.929993 672.400024 C 724.034973 670.515015 716.190002 667.025024 713.36499 667.289978 C 712.710022 668.530029 712.445007 669.034973 711.619995 670.205017 L 710.710022 670.27002 C 711.054993 668.919983 711.429993 668.049988 711.940002 666.780029 C 710.210022 665.72998 706.015015 664.955017 703.85498 664.455017 L 701.434998 663.804993 C 689.960022 662.400024 678.549988 659.580017 666.965027 658.539978 C 678.224976 657.025024 689.924988 655.465027 700.97998 652.869995 C 702.35498 651.409973 701.025024 651.460022 701.919983 648.809998 L 703.044983 648.60498 L 703.799988 649.190002 L 703.914978 651.914978 L 704.64502 652.205017 C 708.52002 651.955017 718.75 648.98999 722.13501 646.929993 C 724.02002 642.184998 727.919983 634.215027 730.289978 629.570007 C 731.840027 629.200012 732.030029 629.60498 733.825012 630.210022 Z"/>
    <path id="path22" fill="#73c2ec" stroke="none" d="M 722.13501 646.929993 C 724.02002 642.184998 727.919983 634.215027 730.289978 629.570007 C 731.840027 629.200012 732.030029 629.60498 733.825012 630.210022 C 731.405029 636.929993 729.159973 643.734985 722.13501 646.929993 Z"/>
    <path id="path23" fill="#fefdfe" stroke="none" d="M 397.944489 237.945984 C 399.014496 244.825989 400.237 251.68103 401.610992 258.506958 L 402.182007 258.881958 C 403.815491 257.972534 404.133514 257.374512 405.540009 257.638489 C 405.956512 259.38501 406.083008 258.614502 405.443512 260.053955 L 404.540497 260.314514 C 403.591492 260.595459 403.416504 260.619995 402.625488 261.252991 C 402.247009 265.622009 405.845001 272.85199 409.619507 274.924011 C 418.925507 280.032959 431.619995 280.026489 441.776001 282.560486 C 432.958496 283.476501 411.167511 285.61499 406.258514 292.390503 C 401.82251 298.513 398.863007 319.686035 397.939514 327.49646 C 397.001007 318.4505 394.649506 295.694458 387.677002 290.305542 C 382.144012 286.028992 368.901001 284.313965 361.642487 283.396484 C 359.893494 283.024536 359.829987 283.044006 358.13501 282.220459 L 357.899994 281.235962 C 362.763489 280.494019 361.934998 279.734497 366.2995 277.359009 C 367.291992 278.285034 366.853485 277.837036 367.211487 279.585999 C 370.033997 279.937988 381.59549 277.28949 384.525513 275.860962 C 389.728485 273.323975 390.828003 271.453491 392.747498 266.521973 C 393.11499 265.36853 393.483002 263.763 393.795013 262.555542 C 395.235992 255.269531 397.406006 245.268005 397.944489 237.945984 Z"/>
    <path id="path24" fill="#fefdfe" stroke="none" d="M 634.484985 726.075012 C 635.780029 732.590027 636.539978 738.914978 637.960022 745.590027 L 638.60498 748.700012 C 639.744995 753.380005 641.265015 758.195007 645.924988 760.494995 C 653.390015 764.179993 667.39502 765.804993 675.690002 767.070007 C 669.849976 767.72998 664.11499 768.659973 658.380005 769.744995 C 644.22998 772.414978 641.815002 772.625 638.159973 786.554993 L 637.73999 789.559998 C 636.75 795.450012 635.815002 801.820007 634.47998 807.60498 C 633.700012 800.289978 631.565002 784.255005 628.299988 777.905029 C 624.890015 771.27002 612.60498 769.890015 605.544983 768.169983 C 603.059998 768.109985 599.60498 767.409973 597.075012 766.98999 L 595.580017 766.734985 L 595.744995 766.440002 C 602.080017 765.534973 604.794983 763.859985 610.275024 762.715027 L 611.515015 763.63501 C 617.044983 763.164978 623.965027 760.974976 627.859985 756.835022 C 625.905029 756.955017 625.755005 756.98999 624.494995 755.994995 L 624.650024 754.929993 C 626.335022 752.859985 628 752.150024 630.320007 750.815002 C 632.195007 742.994995 633.494995 734.044983 634.484985 726.075012 Z"/>
    <path id="path25" fill="#73c2ec" stroke="none" d="M 630.320007 750.815002 C 629.880005 752.434998 629.099976 755.63501 627.859985 756.835022 C 625.905029 756.955017 625.755005 756.98999 624.494995 755.994995 L 624.650024 754.929993 C 626.335022 752.859985 628 752.150024 630.320007 750.815002 Z"/>
    <path id="path26" fill="#fefdfe" stroke="none" d="M 227.082001 473.380493 C 227.348007 470.487 228.710007 464.573975 231.024002 462.467041 L 231.782501 462.867004 C 232.567505 464.860474 232.007996 466.295044 231.577499 468.453979 C 233.323502 472.47699 232.923004 490.936035 231.6465 495.125 C 233.893494 499.646484 235.720993 501.660034 240.906494 503.165039 C 246.548004 504.799988 254.355499 505.780029 260.221985 506.549988 L 259.598999 506.709961 C 247.990005 509.609985 233.666504 507.224976 231.136993 521.315002 C 230.292496 524.359985 230.077499 525.534973 229.662506 528.630005 C 229.033997 532.715027 228.322006 536.780029 227.527496 540.835022 C 223.138504 510.344971 224.158005 511.174988 193.824997 506.52002 C 227.180496 502.670044 221.099503 502.695007 227.082001 473.380493 Z"/>
    <path id="path27" fill="#73c2ec" stroke="none" d="M 227.082001 473.380493 C 227.348007 470.487 228.710007 464.573975 231.024002 462.467041 L 231.782501 462.867004 C 232.567505 464.860474 232.007996 466.295044 231.577499 468.453979 C 233.323502 472.47699 232.923004 490.936035 231.6465 495.125 C 230.658005 488.702515 229.251007 486.824463 228.904999 479.067017 C 228.374496 475.893494 228.837006 475.640991 227.082001 473.380493 Z"/>
    <path id="path28" fill="#87d3f9" stroke="none" d="M 227.082001 473.380493 C 227.348007 470.487 228.710007 464.573975 231.024002 462.467041 L 231.782501 462.867004 C 232.567505 464.860474 232.007996 466.295044 231.577499 468.453979 C 230.2565 472.389526 229.184006 474.921021 228.904999 479.067017 C 228.374496 475.893494 228.837006 475.640991 227.082001 473.380493 Z"/>
    <path id="path29" fill="#fefdfe" stroke="none" d="M 789.5 515.109985 C 794.434998 548.244995 793.549988 543.455017 824.26001 549.525024 C 792.869995 553.109985 794.465027 552.809998 789.424988 583.13501 C 788.340027 577.054993 787.5 570.825012 786.215027 564.775024 C 784.150024 555.049988 778.655029 553.505005 769.905029 551.64502 L 765.955017 550.724976 C 763.304993 550.330017 760.659973 549.905029 758.015015 549.450012 L 758.51001 548.794983 L 765.974976 547.640015 L 769.840027 546.809998 C 774.994995 545.655029 781.36499 544.64502 784.150024 539.544983 C 787.23999 533.890015 788.575012 521.73999 789.5 515.109985 Z"/>
    <path id="path30" fill="#73c2ec" stroke="none" d="M 328.181488 199.634521 C 329.963013 199.940491 329.471985 199.608032 330.785492 200.559998 C 331.174011 206.233521 330.885498 222.945496 329.709991 228.434021 C 327.847992 229.713013 307.541992 229.069519 303.875 229.076538 L 303.235504 229.05603 C 301.953491 228.175537 302.403015 228.775513 302.051514 227.054016 L 302.739014 226.298462 C 308.999512 225.591003 321.232513 225.94751 328.071014 225.869995 C 328.031494 217.375 327.809509 208.058472 328.181488 199.634521 Z"/>
    <path id="path31" fill="#73c2ec" stroke="none" d="M 229.552505 326.682007 C 230.641006 326.797485 230.865997 326.886963 231.921997 327.212036 C 233.005005 329.96051 232.388 350.833496 232.255997 355.00354 C 223.810501 354.674011 213.925995 354.932007 205.375 354.944458 L 203.951508 354.925537 C 202.773499 353.972534 203.138 354.57251 202.871002 353.037964 L 203.595001 352.255981 C 209.663498 351.517456 222.9375 351.968994 229.565994 351.979004 L 229.552505 326.682007 Z"/>
    <path id="path32" fill="#87d3f9" stroke="none" d="M 701.400024 204.507507 L 703.715027 205.228027 C 704.429993 207.958496 704.719971 230.450989 703.409973 231.976013 L 702.539978 231.989502 C 701.744995 230.659485 701.534973 230.263 700.515015 229.05249 C 695.590027 228.775024 689.369995 228.955017 684.349976 228.963989 C 682.35498 228.964478 679.815002 229.34552 678.179993 228.42749 C 677.97998 226.962524 677.849976 227.63147 678.565002 226.350464 C 683.599976 225.630493 695.755005 225.978027 701.400024 225.994507 C 701.539978 218.942993 701.414978 211.583008 701.400024 204.507507 Z"/>
    <path id="path33" fill="#73c2ec" stroke="none" d="M 701.025024 682.849976 L 703.590027 682.994995 L 704.210022 683.765015 C 703.875 685.515015 701.450012 688.02002 700.195007 689.534973 C 705.234985 689.48999 716.559998 688.844971 720.60498 690.684998 L 720.534973 691.294983 C 715.984985 692.969971 706.179993 692.400024 701.005005 692.35498 C 694.284973 691.525024 695.955017 698.280029 690.409973 701.450012 C 688.825012 701.075012 689.534973 701.450012 688.340027 700.059998 L 688.465027 698.969971 C 689.700012 697.690002 693.429993 693.820007 694.054993 692.349976 L 692.974976 690.914978 C 698.330017 686.580017 696.484985 690.559998 701.025024 682.849976 Z"/>
    <path id="path34" fill="#87d3f9" stroke="none" d="M 225.886505 566.664978 L 227.363998 567.215027 C 228.6315 569.02002 229.233994 573.849976 229.708496 576.359985 C 229.990494 573.98999 230.113998 571.669983 230.964493 569.460022 L 231.581497 569.585022 C 233.080505 572.789978 232.916 587.679993 233.018494 592.22998 C 233.029495 592.98999 233.0345 593.744995 233.033997 594.5 C 233.051498 596.325012 233.289001 597.109985 232.347 598.679993 L 231.697998 598.440002 C 230.116501 594.715027 224.720993 570.445007 225.886505 566.664978 Z"/>
    <path id="path35" fill="#73c2ec" stroke="none" d="M 229.113495 786.744995 C 231.445496 786.73999 234.660995 786.484985 236.651001 787.460022 L 237.048004 788.780029 C 234.996002 791.11499 231.614502 786.039978 232.557999 796.140015 C 232.797501 798.700012 232.863007 806.695007 231.919006 808.909973 L 231.070999 808.869995 C 229.141998 806.77002 229.858002 799.934998 229.936493 796.75 L 229.876495 789.52002 C 226.391998 789.534973 211.901001 790.419983 210.061493 788.184998 C 212.981995 786.205017 225.069504 786.72998 229.113495 786.744995 Z"/>
    <path id="path36" fill="#73c2ec" stroke="none" d="M 302.988007 787.11499 C 309.462006 786.484985 323.50351 786.869995 330.493988 786.840027 C 330.712494 793.674988 330.795013 804.13501 330.409485 810.869995 L 328.554993 809.919983 C 327.224487 806.484985 328.01651 793.684998 328.445496 789.640015 C 324.307495 789.47998 306.259491 790.034973 303.722992 789.219971 L 302.988007 787.11499 Z"/>
    <path id="path37" fill="#73c2ec" stroke="none" d="M 504.595001 787.36499 C 507.420013 787.205017 517.625 786 519.070007 788.02002 C 519.440002 789.215027 519.47998 788.945007 519.469971 790.13501 L 519.200012 790.375 C 520.190002 791.640015 520.065002 791.700012 520.369995 793.320007 C 515.900024 793.76001 511.920013 795.005005 507.625 793.89502 C 506.554993 792.640015 506.894989 793.01001 506.785004 790.960022 L 506.665009 789.875 L 502.929993 789.659973 L 504.595001 787.36499 Z"/>
    <path id="path38" fill="#87d3f9" stroke="none" d="M 506.785004 790.960022 C 510.795013 790.869995 515.159973 790.570007 519.200012 790.375 C 520.190002 791.640015 520.065002 791.700012 520.369995 793.320007 C 515.900024 793.76001 511.920013 795.005005 507.625 793.89502 C 506.554993 792.640015 506.894989 793.01001 506.785004 790.960022 Z"/>
    <path id="path39" fill="#1b7fba" stroke="none" d="M 519.070007 788.02002 C 519.440002 789.215027 519.47998 788.945007 519.469971 790.13501 L 519.200012 790.375 C 515.159973 790.570007 510.795013 790.869995 506.785004 790.960022 L 506.665009 789.875 C 510.579987 789.455017 514.38501 789.900024 518.594971 789.215027 L 519.070007 788.02002 Z"/>
    <path id="path40" fill="#73c2ec" stroke="none" d="M 229.781998 421.119507 C 231.141998 421.282471 230.898499 421.256958 232.207001 421.69104 C 233.048996 425.372986 233.048996 445.011963 232.540497 449.225464 C 231.334503 448.967041 231.171997 448.854004 230.037506 448.329956 C 228.9245 445.995972 229.570496 424.812988 229.781998 421.119507 Z"/>
    <path id="path41" fill="#73c2ec" stroke="none" d="M 766.539978 599.109985 L 767.72998 599.744995 C 769.27002 604.544983 769.73999 625.330017 768.380005 629.469971 C 767.590027 629.119995 766.609985 628.909973 766.5 628.289978 C 765.565002 623.164978 765.184998 603.085022 766.539978 599.109985 Z"/>
    <path id="path42" fill="#73c2ec" stroke="none" d="M 765.859985 205.755981 C 767.375 205.873535 767.375 205.795532 768.72998 206.426514 C 769.400024 210.776978 768.900024 228.458496 768.844971 233.59198 C 766.73999 233.447998 767.549988 233.827026 766.049988 232.867004 C 765.405029 228.645996 765.825012 211.070984 765.859985 205.755981 Z"/>
    <path id="path43" fill="#73c2ec" stroke="none" d="M 229.654999 279.164001 L 231.511993 279.60498 C 231.7845 279.870483 232.056503 280.136475 232.328995 280.401978 C 232.701508 286.171509 232.753006 303.694458 232.826508 307.825012 C 232.003494 307.676514 231.141495 307.476501 230.319504 307.301025 C 228.880005 304.976501 229.507004 283.240479 229.654999 279.164001 Z"/>
    <path id="path44" fill="#73c2ec" stroke="none" d="M 765.835022 346.412964 C 766.61499 346.526489 767.530029 346.734985 768.315002 346.890991 C 769.684998 348.829956 768.919983 369.604004 768.869995 373.54248 C 766.73999 373.270996 767.505005 373.734985 766.159973 372.609497 C 765.414978 367.454956 765.804993 352.47998 765.835022 346.412964 Z"/>
    <path id="path45" fill="#73c2ec" stroke="none" d="M 327.987 246.250488 L 330.281494 246.597534 C 331.635498 248.237488 330.721497 271.900024 330.572998 275.404541 C 329.788513 275.46051 329.417999 275.377014 328.632996 275.297974 C 327.34201 273.485962 327.962006 250.138 327.987 246.250488 Z"/>
    <path id="path46" fill="#73c2ec" stroke="none" d="M 229.569 232.171021 L 231.748505 232.653992 C 233.179001 234.33551 232.488998 257.316528 232.435501 261.127502 L 230.282501 260.406006 C 228.842499 258.605469 229.455994 235.895996 229.569 232.171021 Z"/>
    <path id="path47" fill="#73c2ec" stroke="none" d="M 350.276489 786.599976 C 358.27951 786.594971 368.994995 786.109985 376.740509 786.659973 C 377.804993 787.559998 377.490509 787.85498 377.758514 789.690002 C 374.042511 789.700012 352.522003 790.184998 350.606995 789.01001 L 350.276489 786.599976 Z"/>
    <path id="path48" fill="#73c2ec" stroke="none" d="M 726.809998 786.625 C 730.825012 786.590027 752.234985 785.919983 754.335022 787.27002 L 754.799988 789.659973 C 750.719971 789.559998 729.11499 790.280029 727 789 L 726.809998 786.625 Z"/>
    <path id="path49" fill="#73c2ec" stroke="none" d="M 766.244995 486.307495 L 768.10498 486.820496 C 770.059998 488.881958 768.97998 509.825012 768.909973 514.445007 C 768.075012 514.255005 767.36499 514.030029 766.549988 513.789978 C 765.375 511.804993 765.77002 489.557007 766.244995 486.307495 Z"/>
    <path id="path50" fill="#73c2ec" stroke="none" d="M 765.960022 299.240479 C 766.934998 299.390015 767.450012 299.510986 768.405029 299.737488 C 769.679993 301.888489 768.830017 322.819458 768.75 326.875488 C 766.784973 327.090515 767.52002 327.389038 766.174988 326.583496 C 765.460022 321.525513 765.905029 305.271484 765.960022 299.240479 Z"/>
    <path id="path51" fill="#87d3f9" stroke="none" d="M 507.570007 239.742493 C 511.730011 240.156006 531.099976 241.826538 533.210022 243.408508 L 533.14502 246.175537 C 524.530029 244.702026 516.789978 244.112 508.269989 242.97699 C 507.334991 241.933472 507.660004 241.55603 507.570007 239.742493 Z"/>
    <path id="path52" fill="#73c2ec" stroke="none" d="M 489.537506 226.129028 C 493.589508 226.087036 514.700012 225.346497 516.825012 226.799011 L 517.22998 229.096985 C 513.580017 229.087524 491.514496 229.690002 489.774994 228.453003 L 489.537506 226.129028 Z"/>
    <path id="path53" fill="#73c2ec" stroke="none" d="M 586.10498 786.674988 C 592.815002 786.409973 605.820007 786.210022 612.224976 786.659973 C 613.515015 787.539978 613.190002 787.655029 613.799988 789.515015 C 610.090027 789.565002 588.164978 790.315002 586.414978 788.994995 L 586.10498 786.674988 Z"/>
    <path id="path54" fill="#73c2ec" stroke="none" d="M 679.51001 786.534973 C 687.48999 786.60498 697.715027 786.070007 705.445007 786.630005 C 706.599976 787.52002 706.234985 787.580017 706.515015 789.559998 C 702.719971 789.559998 681.63501 790.190002 679.734985 789.044983 L 679.51001 786.534973 Z"/>
    <path id="path55" fill="#73c2ec" stroke="none" d="M 547.76001 786.530029 C 548.140015 785.994995 548.525024 785.465027 548.905029 784.934998 C 555.880005 782.35498 563.780029 781.51001 570.804993 778.875 C 572.005005 778.424988 573.205017 779.409973 573.684998 779.76001 L 573.664978 780.780029 C 571.195007 782.780029 559.159973 785.219971 554.905029 786.664978 C 554.734985 786.719971 554.565002 786.780029 554.39502 786.840027 L 553.565002 787.10498 C 550.755005 788.025024 550.205017 788.39502 547.76001 786.530029 Z"/>
    <path id="path56" fill="#73c2ec" stroke="none" d="M 327.870514 739.705017 C 329.109497 741.64502 328.545013 740.994995 330.696503 742.159973 C 330.869995 745.474976 331.515991 767.559998 330.381012 769.234985 L 329.203003 769.224976 C 328.626495 768.655029 328.16449 768.044983 328.128998 767.210022 C 327.76651 758.73999 328.394012 748.724976 327.911011 740.340027 L 327.870514 739.705017 Z"/>
    <path id="path57" fill="#73c2ec" stroke="none" d="M 255.0065 226.205505 C 262.587006 226.067993 274.473999 225.573975 281.612488 226.193481 C 282.67099 227.130005 282.342499 227.233521 282.59201 229.070007 C 275.032501 229.007507 263.173004 229.59552 256.044006 228.922974 C 254.892502 228.014038 255.263 228.174011 255.0065 226.205505 Z"/>
    <path id="path58" fill="#87d3f9" stroke="none" d="M 725.52002 226.107483 C 732.289978 226.122009 745.515015 225.61853 751.64502 226.224487 C 752.780029 227.073975 752.440002 227.166504 752.780029 229.047974 C 745.275024 229.094971 733.755005 229.652466 726.599976 229.074463 C 725.39502 228.051025 725.784973 228.224487 725.52002 226.107483 Z"/>
    <path id="path59" fill="#73c2ec" stroke="none" d="M 210.043503 226.250488 C 214.876495 226.149536 231.386993 225.409485 234.994995 226.627014 C 235.823502 227.947998 235.634506 227.219482 235.363998 228.929993 L 234.421494 229.315979 C 226.848007 229.050537 219.044998 229.326538 211.462494 228.978027 C 209.645004 228.894531 209.364502 228.737488 208.488495 227.684509 L 208.814499 226.558472 L 210.043503 226.250488 Z"/>
    <path id="path60" fill="#73c2ec" stroke="none" d="M 765.700012 252.304504 L 768 252.670532 C 769.929993 254.699463 768.669983 276.725464 768.609985 280.453491 C 767.710022 280.204956 767.11499 279.976013 766.23999 279.653503 C 765.530029 275.940002 765.724976 257.311523 765.700012 252.304504 Z"/>
    <path id="path61" fill="#73c2ec" stroke="none" d="M 536.494995 226.093994 C 540.330017 226.085022 561.85498 225.464966 563.744995 226.525513 L 564.344971 228.893005 C 560.794983 229.119507 538.88501 229.551025 537.049988 228.508484 L 536.494995 226.093994 Z"/>
    <path id="path62" fill="#73c2ec" stroke="none" d="M 442.922485 226.186523 C 449.949005 226.139038 462.775513 225.585022 469.143494 226.215515 C 470.234497 227.091492 469.90799 227.30603 470.196991 229.164978 C 461.644501 228.978516 452.18399 229.463989 443.741486 228.905029 C 442.699493 227.961487 443.04599 228.088501 442.922485 226.186523 Z"/>
    <path id="path63" fill="#73c2ec" stroke="none" d="M 645.849976 689.575012 C 654.030029 689.719971 664.575012 689.025024 672.445007 689.650024 C 673.47998 690.565002 673.179993 690.724976 673.47998 692.469971 C 666.034973 692.52002 653.61499 692.965027 646.559998 692.359985 C 645.72998 691.424988 645.994995 691.130005 645.849976 689.575012 Z"/>
    <path id="path64" fill="#87d3f9" stroke="none" d="M 583.609985 226.179993 C 590.35498 225.850464 602.61499 225.9375 609.755005 226.162476 C 610.775024 226.195007 610.940002 227.689514 611.304993 228.840515 C 608.155029 229.205505 585.625 229.505493 584.090027 228.515503 L 583.609985 226.179993 Z"/>
    <path id="path65" fill="#87d3f9" stroke="none" d="M 630.844971 226.182495 C 637.984985 226.108521 650.450012 225.581482 657.164978 226.205017 C 658.284973 227.062012 657.940002 227.152466 658.255005 229.03302 C 650.119995 229.067505 639.690002 229.395508 631.73999 228.89502 C 630.695007 227.959473 631.034973 228.035522 630.844971 226.182495 Z"/>
    <path id="path66" fill="#73c2ec" stroke="none" d="M 675.88501 712.909973 C 677.23999 713.929993 677.695007 714.049988 677.820007 715.594971 C 673.784973 720.125 665.26001 727.515015 660.455017 732.094971 C 659.195007 731.059998 659.234985 731.119995 658.35498 729.755005 C 658.815002 728.86499 673.76001 715.164978 675.88501 712.909973 Z"/>
    <path id="path67" fill="#73c2ec" stroke="none" d="M 765.965027 392.58551 L 768.02002 393.055542 C 769.445007 394.85498 768.859985 416.302979 768.859985 420.442017 C 767.98999 420.312988 767.335022 420.138 766.47998 419.934998 C 765.390015 417.596985 765.934998 396.634521 765.965027 392.58551 Z"/>
    <path id="path68" fill="#73c2ec" stroke="none" d="M 396.122498 226.132996 C 403.335999 226.078003 414.009491 225.83252 421.490509 226.242981 C 422.558502 226.301514 422.730988 227.771484 423.136993 228.968018 C 418.777496 229.072998 399.14151 229.874512 396.637512 228.526001 L 396.122498 226.132996 Z"/>
    <path id="path69" fill="#73c2ec" stroke="none" d="M 223.595505 524.799988 C 224.475494 525.684998 224.570496 525.450012 224.671494 527.309998 C 225.089996 535.015015 225.964996 543.205017 225.731506 550.880005 C 225.419998 551.280029 225.108505 551.684998 224.796997 552.085022 L 223.458496 551.070007 C 222.032501 546.960022 221.923004 534.23999 221.811493 529.440002 C 221.748505 526.719971 221.938507 526.434998 223.595505 524.799988 Z"/>
    <path id="path70" fill="#73c2ec" stroke="none" d="M 758.015015 549.450012 C 757.679993 549.445007 755.85498 549.469971 755.664978 549.765015 C 753.10498 553.804993 754.025024 567.60498 751.450012 570.335022 L 749.85498 570.255005 L 749.184998 569.405029 C 749.284973 567.5 749.940002 563.554993 750.419983 561.73999 C 751.38501 558.080017 751.474976 546.544983 754.744995 544.905029 L 755.575012 545.47998 C 755.60498 546.974976 755.445007 547.11499 756.215027 548.335022 L 758.51001 548.794983 L 758.015015 549.450012 Z"/>
    <path id="path71" fill="#73c2ec" stroke="none" d="M 598.570007 689.705017 C 602.695007 689.77002 624.140015 688.924988 626.099976 690.205017 L 626.474976 692.494995 C 622.400024 692.460022 600.609985 693.190002 598.784973 691.849976 L 598.570007 689.705017 Z"/>
    <path id="path72" fill="#73c2ec" stroke="none" d="M 257.32901 786.75 C 263.36499 786.765015 269.392487 786.775024 275.427002 786.72998 C 277.484009 786.715027 282.28949 786.25 283.463989 787.734985 L 283.190491 789.76001 C 279.272491 789.549988 259.423492 790.155029 257.25 789.455017 C 256.62149 787.919983 256.787994 788.765015 257.32901 786.75 Z"/>
    <path id="path73" fill="#73c2ec" stroke="none" d="M 229.535004 740.234985 C 230.888504 740.325012 230.902496 740.359985 232.199493 740.804993 C 232.663498 742.869995 232.565506 764.539978 232.585007 768.375 L 230.485992 767.945007 C 229.089005 766.474976 229.578995 743.625 229.535004 740.234985 Z"/>
    <path id="path74" fill="#73c2ec" stroke="none" d="M 765.909973 439.544495 C 769.440002 440.025024 768.875 441.132507 768.85498 444.571045 C 768.815002 452.078491 768.825012 459.75354 768.88501 467.236511 C 768.219971 467.255981 767.38501 467.174011 766.705017 467.131958 C 765.280029 465.155518 765.89502 443.515015 765.909973 439.544495 Z"/>
    <path id="path75" fill="#73c2ec" stroke="none" d="M 349.317505 226.237488 C 353.105011 226.17749 373.981995 225.388489 375.913513 226.751465 L 376.300507 229.016479 C 372.445496 229.038513 351.177002 229.676514 349.472504 228.278503 L 349.317505 226.237488 Z"/>
    <path id="path76" fill="#73c2ec" stroke="none" d="M 754.094971 500.160034 C 755.695007 500.424988 755.559998 500.219971 756.820007 501.045044 C 757.304993 504.969971 757.625 524.869995 756.409973 527.73999 C 755.619995 527.455017 754.164978 527.049988 754.179993 526.419983 C 754.320007 520.784973 754.034973 504.834961 754.094971 500.160034 Z"/>
    <path id="path77" fill="#73c2ec" stroke="none" d="M 202.935501 689.719971 C 206.610001 689.799988 228.166 689.054993 229.664993 690.219971 L 229.552994 692.469971 C 225.832001 692.494995 204.311493 693.184998 202.076996 691.650024 L 202.022003 690.349976 L 202.935501 689.719971 Z"/>
    <path id="path78" fill="#87d3f9" stroke="none" d="M 550.744995 246.783997 C 554.059998 247.584473 572.609985 252.750488 574.304993 254.434021 L 573.835022 256.825012 C 572.400024 256.97998 553.88501 250.755005 551.085022 249.885498 C 550.289978 248.562012 550.599976 248.65448 550.744995 246.783997 Z"/>
    <path id="path79" fill="#73c2ec" stroke="none" d="M 701.409973 601.034973 L 703.52002 601.539978 C 704.88501 603.380005 704.210022 625.61499 704.179993 629.515015 L 702.200012 628.924988 C 700.890015 627.359985 701.405029 604.765015 701.409973 601.034973 Z"/>
    <path id="path80" fill="#73c2ec" stroke="none" d="M 328.393005 436.136963 L 330.013 436.656982 C 331.941986 439.026978 330.975494 460.501465 330.777008 464.856506 C 330.1185 464.699463 329.351013 464.44397 328.692505 464.244995 C 327.395508 462.065491 328.207489 439.895508 328.393005 436.136963 Z"/>
    <path id="path81" fill="#73c2ec" stroke="none" d="M 701.330017 745.474976 L 703.26001 745.89502 C 704.705017 747.465027 704.130005 770.664978 704.130005 774.97998 L 702.234985 774.549988 C 700.804993 773.109985 701.349976 748.72998 701.330017 745.474976 Z"/>
    <path id="path82" fill="#73c2ec" stroke="none" d="M 229.7155 692.655029 C 230.528503 693.005005 231.337006 693.434998 232.130005 693.835022 C 232.737503 696.474976 232.494507 717.86499 232.342499 721.375 C 230.357498 720.969971 230.975998 721.474976 229.810501 720.320007 C 229.143997 714.530029 229.656998 699.330017 229.7155 692.655029 Z"/>
    <path id="path83" fill="#73c2ec" stroke="none" d="M 701.309998 553.224976 L 703.219971 553.690002 C 704.905029 555.359985 704.255005 578.130005 704.325012 581.955017 L 702.265015 581.799988 C 700.815002 580.304993 701.330017 556.445007 701.309998 553.224976 Z"/>
    <path id="path84" fill="#87d3f9" stroke="none" d="M 735.215027 352.230957 C 739.48999 352.163513 760.150024 351.367493 762.414978 352.821045 C 762.640015 354.341492 762.789978 353.648499 761.86499 354.949463 C 757.299988 354.954468 736.984985 355.632996 735.005005 353.713501 L 735.215027 352.230957 Z"/>
    <path id="path85" fill="#73c2ec" stroke="none" d="M 750.11499 456.843018 C 752.609985 458.138489 755.570007 479.026001 755.11499 482.245972 L 753.86499 483.037476 C 753.234985 482.778992 753.049988 482.75354 752.955017 482.38147 C 751.88501 478.171509 748.669983 460.689514 748.849976 457.875488 L 750.11499 456.843018 Z"/>
    <path id="path86" fill="#87d3f9" stroke="none" d="M 445.307007 244.065002 C 446.635986 243.926514 446.027496 243.820007 447.131012 244.537964 L 447.255005 245.771973 C 446.021515 247.467529 429.062988 251.662964 425.178497 252.968018 L 424.001495 252.91748 L 423.127991 251.832031 L 423.373993 250.802979 C 426.892487 248.544006 440.429993 245.346008 445.307007 244.065002 Z"/>
    <path id="path87" fill="#73c2ec" stroke="none" d="M 738.599976 414.906006 C 740.594971 416.891968 745.315002 433.698486 746.85498 437.745972 C 747.205017 438.656982 745.960022 439.323975 745.059998 440.072998 C 743.539978 438.339478 736.700012 417.856995 736.809998 416.168457 L 738.599976 414.906006 Z"/>
    <path id="path88" fill="#73c2ec" stroke="none" d="M 766.109985 742.14502 C 766.744995 742.26001 768.215027 742.484985 768.284973 742.934998 C 769.039978 747.715027 768.849976 765.570007 768.89502 769.809998 L 766.76001 769.424988 C 765.299988 767.554993 765.844971 745.695007 766.109985 742.14502 Z"/>
    <path id="path89" fill="#73c2ec" stroke="none" d="M 407.947998 352.252502 C 410.385986 352.112488 412.2565 351.612488 413.962494 352.988037 C 413.973999 354.388 414.235992 353.834961 413.454987 354.794495 C 409.583008 355.365479 397.484985 354.988525 392.75 354.976013 C 390.60849 355.03949 388.76001 355.295532 386.778015 354.582031 L 386.418488 353.660522 C 388.592987 351.484497 404.284485 352.234497 407.947998 352.252502 Z"/>
    <path id="path90" fill="#73c2ec" stroke="none" d="M 701.820007 697.60498 L 703.419983 698.320007 C 704.659973 701.090027 704.044983 723.119995 703.835022 727.380005 L 701.969971 726.859985 C 700.89502 724.784973 701.320007 701.099976 701.820007 697.60498 Z"/>
    <path id="path91" fill="#73c2ec" stroke="none" d="M 250.384003 352.147461 C 256.204987 352.11499 270.543488 351.515991 276.588989 352.489014 C 277.060486 352.565002 277.184509 354.218994 277.319489 354.947998 C 273.673004 354.846008 252.127502 355.459961 250.615005 354.257507 L 250.384003 352.147461 Z"/>
    <path id="path92" fill="#73c2ec" stroke="none" d="M 766.424988 695.919983 L 768.005005 696.349976 C 769.52002 698.200012 768.75 719.869995 768.755005 723.86499 C 767.434998 723.674988 767.48999 723.679993 766.289978 723.094971 C 765.72998 719.340027 765.61499 698.835022 766.424988 695.919983 Z"/>
    <path id="path93" fill="#73c2ec" stroke="none" d="M 328.059998 341.087524 C 329.927002 341.479492 329.268494 341.011963 330.526001 342.104004 C 331.101013 349.657471 330.809998 360.408508 330.815002 368.21051 C 329.013 368.125 329.55899 368.402466 328.170502 367.589478 C 327.471008 362.320007 327.987 347.340515 328.059998 341.087524 Z"/>
    <path id="path94" fill="#87d3f9" stroke="none" d="M 243.179001 421.199463 C 244.496506 421.835999 244.664505 421.757996 245.496002 422.907959 C 245.147995 425.775513 239.226501 440.446045 237.774506 445.07251 C 236.384003 444.557983 236.384995 444.638 235.300507 443.663513 C 234.911499 440.978027 241.755493 424.799988 243.179001 421.199463 Z"/>
    <path id="path95" fill="#73c2ec" stroke="none" d="M 294.249512 352.078979 C 298.8685 352.687012 313.731506 351.788513 319.171997 352.132507 C 319.423492 352.395508 319.675507 352.657959 319.927002 352.921021 L 319.840515 354.359985 C 317.977509 355.730957 298.290009 354.953979 294.657501 354.990479 L 294.249512 352.078979 Z"/>
    <path id="path96" fill="#73c2ec" stroke="none" d="M 349.507507 352.24353 C 353.488007 352.230957 362.871002 352.011475 366.154999 352.601501 C 366.826508 353.86853 366.734009 353.208008 366.359009 354.656982 C 364.818512 355.221985 359.570496 355.00647 357.588013 354.999512 C 353.985992 355.000488 341.446991 356.170044 339.695007 353.408508 L 340.219513 352.5495 C 342.886505 352.186523 346.706512 352.268005 349.507507 352.24353 Z"/>
    <path id="path97" fill="#87d3f9" stroke="none" d="M 488.901489 239.22052 C 489.085999 239.2995 489.927002 240.033997 490.11499 240.190491 C 489.929504 241.344482 490.151001 240.806519 489.410492 241.786987 C 486.589996 242.591492 470.53299 243.448486 466.089508 244.007507 C 465.140991 243.053467 465.508514 243.623535 465.3255 242.05603 C 467.40799 239.892517 485.186493 239.434998 488.901489 239.22052 Z"/>
    <path id="path98" fill="#73c2ec" stroke="none" d="M 547.76001 786.530029 C 550.205017 788.39502 550.755005 788.025024 553.565002 787.10498 L 554.39502 786.840027 C 554.565002 786.780029 554.734985 786.719971 554.905029 786.664978 C 557.835022 787.190002 560.554993 786.440002 564.400024 787.164978 C 565.27002 788.150024 564.969971 787.575012 565.025024 789.065002 C 563.914978 789.955017 542.534973 789.570007 539.515015 789.515015 C 538.349976 788.859985 538.765015 789.304993 538.335022 788.070007 L 538.945007 787.244995 C 541.195007 785.940002 544.650024 786.580017 547.76001 786.530029 Z"/>
    <path id="path99" fill="#87d3f9" stroke="none" d="M 330.77951 301.889526 C 332.716003 301.529541 332.468506 301.278015 334.078003 301.833008 C 334.255005 303.992004 332.431 305.334473 330.906494 306.676025 C 330.111511 307.225464 328.425507 308.297485 327.831512 308.930542 C 324.697998 311.85199 321.111511 316.037476 318.018494 318.611511 C 316.297485 318.750488 317.047485 318.973511 315.684998 317.943481 C 315.718506 315.929504 325.729492 307.091003 328.127502 304.447998 C 329.401489 303.398987 329.727997 303.2005 330.77951 301.889526 Z"/>
    <path id="path100" fill="#73c2ec" stroke="none" d="M 231.136993 521.315002 C 232.740005 522.85498 232.702499 524.224976 232.610504 526.655029 C 232.391998 532.419983 233.175507 544.109985 232.184998 549.159973 L 231.219498 549.715027 L 230.369995 549.424988 C 228.665497 545.26001 231.067001 532.914978 230.171494 528.775024 L 229.662506 528.630005 C 230.077499 525.534973 230.292496 524.359985 231.136993 521.315002 Z"/>
    <path id="path101" fill="#73c2ec" stroke="none" d="M 231.509995 626.184998 L 229.953995 625.690002 C 228.831497 621.710022 229.022507 606.39502 230.718994 602.294983 L 231.448502 601.724976 C 234.707001 603.450012 230.384003 622.919983 232.542496 625.724976 L 231.509995 626.184998 Z"/>
    <path id="path102" fill="#73c2ec" stroke="none" d="M 638.159973 786.554993 C 643.315002 787.525024 655.390015 785.255005 659.275024 787.434998 C 659.690002 788.684998 659.724976 788.085022 659.25 789.234985 C 654.780029 789.88501 642.63501 789.63501 637.73999 789.559998 L 638.159973 786.554993 Z"/>
    <path id="path103" fill="#73c2ec" stroke="none" d="M 267.934998 689.544983 C 269.362488 690.619995 270.255005 691.255005 271.505005 692.515015 C 267.053497 692.390015 252.593506 693.549988 250.0755 691.140015 L 250.070007 690.179993 C 251.921005 689.094971 264.903015 689.515015 267.934998 689.544983 Z"/>
    <path id="path104" fill="#73c2ec" stroke="none" d="M 327.164001 399.203979 L 330.903503 398.326538 C 330.984009 402.536499 331.602997 413.282959 330.219513 416.776978 L 329.571991 417.232544 C 326.058014 414.992493 329.662506 401.480469 327.164001 399.203979 Z"/>
    <path id="path105" fill="#87d3f9" stroke="none" d="M 361.642487 283.396484 C 358.647003 285.908997 351.764008 291.936523 348.119995 291.251465 L 347.425507 290.126465 C 348.783997 286.729492 355.232513 285.678467 356.738007 282.922974 L 354.240997 282.064514 L 354.271515 281.525513 C 356.125 281.082031 356.102509 281.125 357.899994 281.235962 L 358.13501 282.220459 C 359.829987 283.044006 359.893494 283.024536 361.642487 283.396484 Z"/>
    <path id="path106" fill="#87d3f9" stroke="none" d="M 292.48349 342.458496 C 295.485992 338.318481 298.849487 334.453003 302.533997 330.906006 L 303.96701 330.698975 C 305.441498 333.4375 295.546997 343.266968 293.425995 345.975464 C 293.196014 344.903992 292.77951 343.543457 292.48349 342.458496 Z"/>
    <path id="path107" fill="#87d3f9" stroke="none" d="M 601.625 270.221497 C 597.815002 267.452026 593.669983 266.632507 589.934998 263.773987 C 589.75 262.492004 589.690002 263.154541 590.655029 261.788513 C 594.015015 261.523499 603.059998 267.160034 606.200012 269.046021 L 601.625 270.221497 Z"/>
    <path id="path108" fill="#73c2ec" stroke="none" d="M 765.844971 789.234985 C 767.025024 789.414978 767.059998 789.414978 768.159973 789.875 C 769.369995 792.664978 768.565002 803.840027 768.549988 807.434998 L 766.98999 807.539978 L 766.215027 806.86499 C 765.275024 802.775024 765.72998 793.794983 765.844971 789.234985 Z"/>
    <path id="path109" fill="#73c2ec" stroke="none" d="M 748.929993 689.625 C 753.315002 689.575012 761.525024 689.090027 765.275024 690.700012 L 765.280029 691.344971 C 761.340027 693.140015 752.825012 692.559998 748.179993 692.515015 L 748.929993 689.625 Z"/>
    <path id="path110" fill="#73c2ec" stroke="none" d="M 701.434998 663.804993 L 703.85498 664.455017 C 704.210022 668.174988 705.414978 676.085022 703.304993 679.200012 L 702.565002 678.98999 C 700.650024 675.099976 701.309998 668.309998 701.434998 663.804993 Z"/>
    <path id="path111" fill="#87d3f9" stroke="none" d="M 229.072998 390.89801 C 231.326996 388.742493 227.768997 376.360962 230.585007 373.995972 L 231.429993 374.368042 C 233.100998 377.469482 232.464996 386.44751 232.415497 390.362 L 229.072998 390.89801 Z"/>
    <path id="path112" fill="#73c2ec" stroke="none" d="M 701.539978 793.094971 C 702.265015 793.255005 702.844971 793.474976 703.549988 793.705017 C 704.679993 796.14502 704.094971 808.049988 704.059998 811.690002 L 702.455017 811.284973 C 700.700012 809.309998 701.474976 796.630005 701.539978 793.094971 Z"/>
    <path id="path113" fill="#73c2ec" stroke="none" d="M 328.250488 502.405029 C 327.636993 498.343506 327.410004 488.709473 329.044006 484.978516 L 329.73349 484.786011 C 331.496002 487.744019 330.68399 495.738037 330.505005 499.471008 L 328.250488 502.405029 Z"/>
    <path id="path114" fill="#73c2ec" stroke="none" d="M 597.075012 766.98999 C 599.60498 767.409973 603.059998 768.109985 605.544983 768.169983 C 600.315002 769.065002 593.309998 776.440002 589.559998 773.210022 L 589.630005 772.23999 C 591.049988 770.299988 594.900024 769.909973 597.690002 767.765015 L 597.075012 766.98999 Z"/>
    <path id="path115" fill="#73c2ec" stroke="none" d="M 766.205017 579.619995 C 766.940002 579.830017 767.375 580.02002 768.085022 580.304993 C 769.349976 583.244995 768.525024 594.405029 768.35498 598.090027 L 766.72998 597.48999 C 765.335022 595.090027 765.984985 582.945007 766.205017 579.619995 Z"/>
    <path id="path116" fill="#73c2ec" stroke="none" d="M 765.974976 547.640015 C 765.835022 544.164978 764.525024 534.97998 767.705017 533.424988 L 768.575012 533.880005 C 769.335022 536.309998 768.72998 542.684998 768.940002 546.155029 L 769.840027 546.809998 L 765.974976 547.640015 Z"/>
    <path id="path117" fill="#73c2ec" stroke="none" d="M 330.906494 306.676025 C 330.950989 310.053955 331.515503 319.273499 329.981995 321.783508 L 328.737488 321.816528 C 327.177002 319.430542 328.238495 312.352539 327.831512 308.930542 C 328.425507 308.297485 330.111511 307.225464 330.906494 306.676025 Z"/>
    <path id="path118" fill="#73c2ec" stroke="none" d="M 229.578995 657.530029 L 232.197495 661.109985 C 231.857498 666.940002 233.252502 666.76001 231.211502 673.559998 L 230.630997 673.835022 C 228.988998 669.515015 229.485001 662.320007 229.578995 657.530029 Z"/>
    <path id="path119" fill="#73c2ec" stroke="none" d="M 519.469971 790.13501 C 522.36499 789.744995 529.469971 788.315002 531.575012 789.75 C 531.89502 791.325012 532.099976 790.73999 531.474976 791.77002 C 527.64502 792.974976 524.090027 792.60498 520.369995 793.320007 C 520.065002 791.700012 520.190002 791.640015 519.200012 790.375 L 519.469971 790.13501 Z"/>
    <path id="path120" fill="#87d3f9" stroke="none" d="M 229.866501 198.865967 L 231.235504 199.360474 C 232.786499 201.171509 232.056 209.391968 231.915497 212.089966 C 231.216995 211.801514 230.288498 211.599487 230.063995 211.084473 C 228.8815 208.372498 229.401993 201.610962 229.866501 198.865967 Z"/>
    <path id="path121" fill="#87d3f9" stroke="none" d="M 637.960022 745.590027 C 640.150024 743.664978 641.909973 741.570007 644.820007 741.565002 L 645.359985 742.234985 C 644.724976 745.26001 641.205017 747.25 638.60498 748.700012 L 637.960022 745.590027 Z"/>
    <path id="path122" fill="#87d3f9" stroke="none" d="M 742.919983 594.744995 C 743.684998 592.080017 743.919983 590.304993 745.75 588.25 L 746.36499 588.330017 C 747.109985 591.965027 745.52002 597.335022 744.094971 600.705017 C 743.585022 598.539978 743.219971 596.945007 742.919983 594.744995 Z"/>
    <path id="path123" fill="#87d3f9" stroke="none" d="M 778.10498 786.669983 C 780.575012 786.47998 785.419983 785.775024 787.484985 786.97998 C 788.140015 787.359985 788.085022 788.51001 788.25 789.48999 C 784.880005 789.405029 782.969971 789.994995 779.505005 789.27002 C 777.974976 788.140015 778.549988 788.89502 778.10498 786.669983 Z"/>
    <path id="path124" fill="#73c2ec" stroke="none" d="M 442.373993 354.590515 C 439.613007 354.903992 436.880493 355.645508 434.69101 353.976501 L 434.847504 353.153503 C 437.834991 351.247009 440.462006 352.020508 444.07901 352.372986 L 442.373993 354.590515 Z"/>
    <path id="path125" fill="#73c2ec" stroke="none" d="M 765.955017 550.724976 L 769.905029 551.64502 L 769.265015 552.090027 C 768.494995 554.01001 769.184998 556.215027 768.840027 558.880005 C 767.580017 559.664978 768.289978 559.434998 766.539978 559.13501 C 765.48999 557.690002 765.940002 552.960022 765.955017 550.724976 Z"/>
    <path id="path126" fill="#87d3f9" stroke="none" d="M 778.450012 226.073486 C 780.640015 225.896973 784.945007 225.234985 786.684998 226.4245 C 787.330017 226.867493 787.22998 227.860962 787.375 228.859497 C 783.054993 228.712036 779.724976 230.586487 778.450012 226.073486 Z"/>
    <path id="path127" fill="#73c2ec" stroke="none" d="M 328.127502 304.447998 C 327.980499 300.900513 327.639496 297.812012 329.018005 294.479004 L 329.569489 294.755981 C 331.044495 297.646484 330.645996 298.718018 330.77951 301.889526 C 329.727997 303.2005 329.401489 303.398987 328.127502 304.447998 Z"/>
    <path id="path128" fill="#73c2ec" stroke="none" d="M 473.9245 791.809998 C 475.016998 792.684998 476.044006 793.344971 476.752991 794.534973 C 473.187012 794.715027 470.810486 795.309998 467.890991 793.330017 L 468.137512 792.5 C 470.179504 791.349976 471.636505 791.789978 473.9245 791.809998 Z"/>
    <path id="path129" fill="#87d3f9" stroke="none" d="M 263.203003 382.972534 C 264.438995 380.807495 267.003998 375.644043 269.367004 374.951538 L 269.778992 375.905029 C 269.708008 379.252991 268.313995 378.556519 267.616486 381.217041 C 265.605499 382.316528 265.397003 382.471985 263.203003 382.972534 Z"/>
    <path id="path130" fill="#87d3f9" stroke="none" d="M 765.554993 668.11499 L 768.570007 667.099976 C 768.669983 669.38501 769.049988 672.61499 768.349976 674.659973 L 767.51001 675.380005 L 766.465027 675.125 C 765.47998 673.034973 766.429993 670.140015 765.554993 668.11499 Z"/>
    <path id="path131" fill="#73c2ec" stroke="none" d="M 386.53949 265.830994 C 387.46701 266.64801 388.084015 267.273499 389.132996 267.934998 C 386.812988 269.452026 385.593994 270.953003 382.912506 269.733032 L 382.795013 268.647461 C 383.565002 267.015503 384.860504 266.669495 386.53949 265.830994 Z"/>
    <path id="path132" fill="#87d3f9" stroke="none" d="M 253.164993 400.158997 L 255.936996 400.643494 L 255.650497 401.335999 C 254.791504 403.385986 254.272995 405.432495 252.220505 406.276978 L 251.561493 405.651489 C 251.197998 403.533508 252.186996 402.182007 253.164993 400.158997 Z"/>
    <path id="path133" fill="#87d3f9" stroke="none" d="M 386.53949 265.830994 L 393.795013 262.555542 C 393.483002 263.763 393.11499 265.36853 392.747498 266.521973 C 391.183014 266.999512 390.610992 267.136475 389.132996 267.934998 C 388.084015 267.273499 387.46701 266.64801 386.53949 265.830994 Z"/>
    <path id="path134" fill="#87d3f9" stroke="none" d="M 782.119995 352.153503 C 784.554993 352.082031 786.125 351.647461 788.005005 352.754028 L 788.484985 354.880981 C 786.580017 354.931519 785.344971 355.014526 783.465027 354.766968 C 781.98999 353.640503 782.565002 354.385498 782.119995 352.153503 Z"/>
    <text id="text2" xml:space="preserve" x="1290" y="789" font-family="Times" font-size="37" fill="#444444">텍스트</text>
</svg>
